# xmcd
#
# Track frame offsets:
#  150
#  14827
#  32313
#  44216
#  53322
#  66818
#  75614
#  84811
#  106268
#  118795
#  132143
#  146213
#  161594
#  176809
#  188144
#  200099
#  209371
#  223163
#  234101
#  249843
#
# Disc length: 3541 seconds
#
# Revision: 1
# Processed by: cddbd v1.4PL0 Copyright (c) Steve Scherf et al.
# Submitted via: AltoMP3_Maker 3.0
#
DISCID=170dd314
DTITLE=Seelikukütid - Parimad 1
DYEAR=2002
DGENRE=country
TTITLE0=Ahastus (Dj X Remix 2002)
TTITLE1=Robert (Hovery Covery Remix)
TTITLE2=Armastad mind sa
TTITLE3=Hüpiknukk
TTITLE4=Roosid, roosid
TTITLE5=Põhjuseta ma ei joo
TTITLE6=Tule naiseks mulle
TTITLE7=Selle suve laul
TTITLE8=Teisi
TTITLE9=Võrukael
TTITLE10=Jaaniöö valss
TTITLE11=La cucaracha
TTITLE12=Uraali pihlapuuke
TTITLE13=Ah, kui juba mürgel
TTITLE14=Tahan koju
TTITLE15=Esmaspäeval ma tööle ...
TTITLE16=Robert
TTITLE17=Peedike
TTITLE18=Hr. Klimberman (feat. Elmar Tura)
TTITLE19=Veronika (feat. Elmar Tura)
EXTD=
EXTT0=
EXTT1=
EXTT2=
EXTT3=
EXTT4=
EXTT5=
EXTT6=
EXTT7=
EXTT8=
EXTT9=
EXTT10=
EXTT11=
EXTT12=
EXTT13=
EXTT14=
EXTT15=
EXTT16=
EXTT17=
EXTT18=
EXTT19=
PLAYORDER=
